<?xml version="1.0" encoding="utf-8"?>
<!-- Generator: Adobe Illustrator 25.2.0, SVG Export Plug-In . SVG Version: 6.00 Build 0)  -->
<svg version="1.1" id="Layer_1" xmlns="http://www.w3.org/2000/svg" xmlns:xlink="http://www.w3.org/1999/xlink" x="0px" y="0px"
	 viewBox="0 0 500 500" style="enable-background:new 0 0 500 500;" xml:space="preserve">
<style type="text/css">
	.st0{fill:#A7C0C6;}
	.st1{fill:#B9D2D6;}
	.st2{fill:#7DA3AD;}
	.st3{fill:#C6DCE0;}
	.st4{fill:#778B91;}
	.st5{fill:#FFEAD7;}
	.st6{fill:#FCDFC8;}
	.st7{fill:#88B1BA;}
	.st8{fill:#5B4A4D;}
	.st9{fill:#473437;}
	.st10{fill:#F4E9DC;}
	.st11{fill:#F9F1E8;}
	.st12{fill:#EDD9C3;}
	.st13{fill:#E5C9AE;}
	.st14{fill:#F4E3D3;}
	.st15{fill:#C6A98D;}
	.st16{fill:#AF8461;}
	.st17{fill:#594547;}
	.st18{fill:#443235;}
	.st19{fill:#D6C2B4;}
	.st20{fill:#7A646F;}
	.st21{fill:#42323A;}
	.st22{fill:#D3BCA9;}
	.st23{fill:#3F3137;}
	.st24{fill:#544345;}
	.st25{fill:#EFE5CA;}
	.st26{fill:#85D0E8;}
	.st27{fill:#CC7256;}
	.st28{fill:#B25238;}
	.st29{fill:#FFE7BD;}
	.st30{fill:#FFD4A9;}
	.st31{fill:#FFE888;}
	.st32{fill:#FFCA6C;}
	.st33{fill:#3A2C32;}
	.st34{fill:#FFAB57;}
	.st35{fill:#FFCE61;}
	.st36{fill:#4F4048;}
	.st37{fill:#382B32;}
	.st38{fill:#FFE48D;}
	.st39{fill:#B8FAFF;}
	.st40{fill:#2B1F25;}
</style>
<g>
	<g>
		<path class="st0" d="M133.52,397.08h39.87l16.66-64.84c0,0-33.71-12.41-66.65-5.9L133.52,397.08z"/>
		<path class="st1" d="M134.69,385.18c-0.11-1.53,0.42-2.77,1.21-2.77c0.78,0,1.51,1.24,1.62,2.77c0.12,1.53-0.42,2.77-1.2,2.77
			C135.53,387.96,134.8,386.72,134.69,385.18z"/>
		<path class="st1" d="M126.42,329.68c0,0,7.13,48.94,8.33,49.4c5.36,2.03,4.02-51.27,4.02-51.27S130.88,328.12,126.42,329.68z"/>
		<path class="st2" d="M132.82,390.76c14.13,0,33.92-16.16,37.19-39.58c1.38-9.85,1.66-17.7,1.13-23.95c11.4,2.24,18.92,5,18.92,5
			l-16.66,64.84h-39.87l-0.9-6.33C132.68,390.75,132.75,390.76,132.82,390.76z"/>
		<path class="st3" d="M123.54,327.29l-0.14-0.96c32.94-6.51,66.65,5.9,66.65,5.9l-0.27,1.05
			C184.57,331.5,153.92,321.72,123.54,327.29z"/>
		<path class="st4" d="M170.23,331.67c0.26-0.26,25.87-25.77,22.63-35.1c-0.7-2.02-2.5-3.14-5.35-3.33
			c-18.88-1.22-41.3,19.96-51.57,32.67l1.82,1.61c9.99-12.35,31.67-32.95,49.61-31.79c2.74,0.18,3.13,1.32,3.26,1.69
			c1.87,5.39-12.04,22.55-22.03,32.44L170.23,331.67z"/>
		<path class="st3" d="M172.99,330.4c0,1.89-1.33,3.43-2.98,3.43c-1.64,0-2.97-1.53-2.97-3.43c0-1.89,1.33-3.43,2.97-3.43
			C171.65,326.98,172.99,328.51,172.99,330.4z"/>
		<path class="st4" d="M171.38,330.4c0,0.87-0.61,1.58-1.37,1.58c-0.76,0-1.37-0.71-1.37-1.58c0-0.87,0.61-1.58,1.37-1.58
			C170.77,328.83,171.38,329.53,171.38,330.4z"/>
		<path class="st2" d="M162.48,325.05c0,0,0.67,27.2-1.74,29.23c-0.97,0.82-5.05-6.14-6.19-5.82c-1.13,0.32-3.86,3.97-5.45,4.05
			c-1.59,0.07-8.4-4.21-9.77-4.15c-1.36,0.06-3.05,3.48-5.45,2.42c-1.07-0.47-1.14-24.12,0.16-27.59
			C134.54,321.86,161.58,322.93,162.48,325.05z"/>
		<path class="st5" d="M162.56,323.08c0,0-1.07,27.89-2.14,28.16c-1.07,0.27-5.15-4.87-6.22-4.6c-1.07,0.27-3.65,3.79-5.15,3.79
			c-1.5,0-7.94-4.6-9.22-4.6c-1.29,0-4.07,2.17-5.15,2.17c-1.07,0-1.29-26.54-0.22-26.81C135.54,320.91,161.71,320.91,162.56,323.08
			z"/>
		<path class="st6" d="M141.04,333.37c11.32,0,20.56-4.67,21.25-10.57c0.14,0.09,0.24,0.18,0.28,0.28c0,0-1.07,27.89-2.14,28.16
			c-1.07,0.27-5.15-4.87-6.22-4.6c-1.07,0.27-3.65,3.79-5.15,3.79c-1.5,0-7.94-4.6-9.22-4.6c-1.29,0-4.07,2.17-5.15,2.17
			c-0.59,0-0.92-8.04-0.92-15.31C136.04,333.11,138.48,333.37,141.04,333.37z"/>
		<path class="st7" d="M150.07,395.75c0,0,18.74-5.97,35.11-48.62l-12.8,48.62H150.07z"/>
	</g>
	<path class="st8" d="M311.56,286.37c-5.34-18.6-10.6-24.09-15.57-27.68c0,0-0.59,8.43-0.64,8.39c2.23,2.22,8.1,11.84,11.02,22.01
		c6.48,22.59,13.53,52.51,27.93,65.08l5.65-9.15C328.21,334.77,317.29,306.34,311.56,286.37z"/>
	<path class="st9" d="M308.71,285.25c-3-11.2-10.43-21.24-12.93-23.57c0.01,0.01,0.02-0.19,0.03-0.51
		c-0.18,2.48-0.43,5.94-0.46,5.91c2.23,2.22,8.1,11.84,11.02,22.01c6.48,22.59,13.53,52.51,27.93,65.08l2.52-4.07
		C323.86,334.96,314.28,306.04,308.71,285.25z"/>
	<path class="st10" d="M245.45,381.97c0,0-34.72-14.18-44.11-23.82c-9.39-18.9-30.64-125.66-27.18-169.65
		c0,0,21.06-18.83,67.71-22.24c40.53-2.97,58.32,14.83,58.32,14.83s7.91,124.18-10.87,177.06
		C270.54,372.37,245.45,381.97,245.45,381.97z"/>
	<path class="st11" d="M300.19,181.09c0,0-4.12-4.11-12.89-8.05c16.24,30.44-2.07,133.82-18.98,184.64
		c-11.36,9.14-15.86,18.7-25.15,23.33c1.45,0.61,2.28,0.95,2.28,0.95s25.08-9.61,43.87-23.82
		C308.1,305.27,300.19,181.09,300.19,181.09z"/>
	<path class="st12" d="M228.9,350.64c-9.18-7.22-37.19-164.95-28.81-175.88c-17.65,6.36-25.93,13.75-25.93,13.75
		c-3.46,43.99,17.79,150.74,27.18,169.65c9.39,9.64,44.11,23.82,44.11,23.82s32.19-11.4,43.87-23.82c1.11-1.48,1.52-4.37,2.1-6.56
		C286.73,354.6,234.71,355.21,228.9,350.64z"/>
	<path class="st13" d="M197.93,175.56c-7.33,13.83,18.76,171.5,27.49,178.38c5.34,4.2,54.33,1.9,65.58-0.62
		c0.11-0.46,0.24-1.05,0.41-1.73c-4.68,3-56.7,3.62-62.51-0.95c-9.18-7.22-37.19-164.95-28.81-175.88
		C199.44,174.99,198.3,175.42,197.93,175.56z"/>
	<g>
		<path class="st14" d="M222.6,364.11c-22.74-20.26-49.68-129.64-46.22-173.63c0,0,3.78-5.17,11.44-10.51
			c-9.23,4.6-13.66,8.53-13.66,8.53c-3.46,43.99,17.79,150.74,27.18,169.65c0.66,0.68,1.46,1.38,2.35,2.1
			C203.65,360.22,215.93,365.59,222.6,364.11z"/>
	</g>
	<path class="st15" d="M253.03,381.6c-2.43-0.59-10.67-11.82-10.67-11.82l5.25-6.98c4.63-6.86,12.43-5.08,14.89,0.93
		C264.11,367.63,257.12,382.59,253.03,381.6z"/>
	<path class="st16" d="M262.41,363.52c-2.55-5.83-10.21-7.5-14.79-0.73l-5.25,6.98c0,0,0.99,1.35,2.38,3.13
		C249.72,368.53,256.32,365.04,262.41,363.52z"/>
	<path class="st12" d="M256.33,381.06c2.59-3.63,5.92-18.27,5.92-18.27l27.06-4.63C289.32,358.16,261.3,381.84,256.33,381.06z"/>
	<ellipse class="st17" cx="246.69" cy="381.33" rx="12.07" ry="15.69"/>
	<path class="st18" d="M251.86,366.99c-1.57-0.88-3.32-1.36-5.17-1.36c-6.67,0-12.07,6.04-12.07,15.69c0,9.66,5.4,15.69,12.07,15.69
		c3.06,0,5.85-1.29,7.97-3.6C247.56,392.9,244.23,371.59,251.86,366.99z"/>
	<path class="st19" d="M246.82,380.52c0-5.96-2.3-9.68-5.13-9.68c-2.83,0-5.13,3.72-5.13,9.68s2.3,9.68,5.13,9.68
		C244.53,390.2,246.82,386.48,246.82,380.52z"/>
	<path class="st17" d="M243.36,380.48c0-1.6-0.83-2.9-1.85-2.9c-1.02,0-1.85,1.3-1.85,2.9c0,1.6,0.83,2.9,1.85,2.9
		C242.53,383.39,243.36,382.09,243.36,380.48z"/>
	<path class="st20" d="M221.83,263.24c5.55,5.49,62.07,5.56,69.36-1c4.23-3.81,7.98-66.32,1.95-78.62
		c-3.17-6.47-72.36-9.67-82.14,1.26C205.88,190.59,213.9,255.39,221.83,263.24z"/>
	<path class="st21" d="M223.62,261.3c5.33,5.26,59.55,5.34,66.55-0.95c4.06-3.65,7.7-63.67,1.91-75.5
		c-3.04-6.22-69.55-9.29-78.93,1.22C208.25,191.56,216.01,253.78,223.62,261.3z"/>
	<path class="st22" d="M200.13,283.22c-1.57-10.87-5.88-17.72-9.62-17.19c-3.74,0.53-5.5,8.25-3.93,19.12
		c1.57,10.87,5.88,19.25,9.62,18.72C199.95,303.33,201.71,294.09,200.13,283.22z"/>
	<path class="st15" d="M187.41,289.58c1.95-3.83,4.92-6.28,8.25-6.28c1.69,0,3.28,0.65,4.7,1.77c-0.07-0.61-0.14-1.23-0.23-1.85
		c-1.57-10.87-5.88-17.72-9.62-17.19c-3.74,0.53-5.5,8.25-3.93,19.12C186.81,286.68,187.09,288.16,187.41,289.58z"/>
	<path class="st23" d="M199.24,283.26c-1.22-8.43-3.87-13.84-5.98-13.54c-2.11,0.3-2.88,6.2-1.66,14.63
		c1.22,8.43,3.92,15.02,6.03,14.72C199.73,298.76,200.46,291.69,199.24,283.26z"/>
	<path class="st12" d="M240.76,381.7c2.74,0.45,6.86-18.9,6.86-18.9s-31.93-0.47-46.02-4.38
		C206.84,364.64,230.1,379.94,240.76,381.7z"/>
	<path class="st24" d="M136.35,358.53c-44.7-6.8-59.1-84.75-26.22-112.87l7.71,9.01c-25.7,21.99-15.69,88.96,18.06,94.1
		c45.61,6.95,23.52-72.28,56.7-78.91c2.64-0.99,5.41,4.41,3.06,6.88C169.46,279.2,184.31,365.83,136.35,358.53z"/>
	<g>
		<path class="st9" d="M117.84,254.67l-3.95-4.62c-20.02,19.1-17.28,67.98,3.06,87.17C99.46,315.9,97.89,271.74,117.84,254.67z"/>
		<path class="st9" d="M132.39,354.57c-8.98-2.08-16.92-5.81-23.29-12.2c7.08,8.49,16.24,14.48,27.24,16.16
			c47.96,7.3,33.11-79.33,59.31-81.8c1.3-1.37,1.03-3.63,0.08-5.21C161.56,282.99,181.95,366.03,132.39,354.57z"/>
	</g>
	<polygon class="st10" points="114.72,257.74 119.79,254.86 109.29,243.49 107.01,248.62 	"/>
	<path class="st10" d="M135.21,248.51c2.24,2.26-1.92,5.43-6.05,7.91c-3.93,2.36-10.01,0.34-14.19-2.21l1.33-1.44
		c1.97,0.89,8.21,0.13,9.93-1.34C128.93,249.12,132.96,246.24,135.21,248.51z"/>
	<path class="st10" d="M127.22,234.88c2.88,1.36,0.05,5.76-2.99,9.5c-2.89,3.56-7.5,7.54-12.29,6.57l0.76-1.81
		c2.16,0.16,5.96-6.48,7.07-8.46C121.53,237.6,124.34,233.52,127.22,234.88z"/>
	<path class="st25" d="M433.51,386.7l-6.67-4.08l4.46-5.42l-0.75-5.71l12.23,1.11c2.59,7.41,2.59,7.41,2.59,7.41l-7.04,1.11
		L433.51,386.7z"/>
	<polygon class="st25" points="413.41,355.58 420.42,355.83 421.78,362.63 416.34,362.73 416.35,368.68 412.76,364.36 
		406.43,363.19 411.28,359.54 	"/>
	<path class="st26" d="M305.11,77.62c-7.68-5.32-111.46-1.65-117.13,2.4c-5.67,4.04,4.81,65.47,11.27,68.13
		c10.46,4.31,60.24,1.14,88.76-3.97l2.16,12.37l8.6-14.66c4.14-1.08,7.15-2.21,8.55-3.34C310.73,135.79,312.79,82.94,305.11,77.62z"
		/>
	<path class="st27" d="M102.99,222.12c8.78,11.26,26.34,52.62,32.62,48.4c8.4-5.65-22.79-38.07-29.65-50.63
		C105.35,218.79,102.99,222.12,102.99,222.12z"/>
	<path class="st28" d="M105.43,219.7c-0.91,0.26-2.44,2.42-2.44,2.42c8.78,11.26,26.34,52.62,32.62,48.4
		c0.9-0.61,1.32-1.54,1.39-2.7C130.34,269.1,114.05,231.26,105.43,219.7z"/>
	<path class="st10" d="M118.02,227.96c-1.86-2.57-5.62,1.01-8.7,4.68c-2.93,3.5-1.91,9.82-0.07,14.35l1.63-1.08
		c-0.56-2.09,1.16-8.12,2.88-9.58C116.43,234.06,119.89,230.54,118.02,227.96z"/>
	<path class="st29" d="M100.26,222.73c0,0-28.41-19.02-39.26-29.11c0,0,7.91-25.28,41.92-35.07c0,0,7.05,57.76,5.41,60.37
		C106.68,221.53,104.54,224.17,100.26,222.73z"/>
	<path class="st30" d="M64.51,186.37c-2.58,4.29-3.51,7.25-3.51,7.25c10.85,10.09,39.26,29.11,39.26,29.11
		c4.28,1.44,6.42-1.2,8.07-3.81c0.38-0.61,0.29-4.19-0.07-9.34C95.7,220.66,68.21,191.79,64.51,186.37z"/>
	<polygon class="st31" points="106.57,228.79 111.39,225.7 109.16,212.97 98.17,222.24 	"/>
	<g>
		<path class="st32" d="M105.06,217.89c-0.06-0.45-0.1-0.9-0.14-1.34l-6.76,5.69l8.4,6.55l2.15-1.38
			C107.17,226.39,105.65,222.58,105.06,217.89z"/>
		<path class="st32" d="M111.25,225.79l0.14-0.09l-0.04-0.22C111.32,225.58,111.28,225.69,111.25,225.79z"/>
	</g>
	<g>
		<path class="st33" d="M271.78,180.01c-21.29-1.9-52.43-0.89-58.63,6.06c-4.68,5.24,2.18,62.12,9.43,73.83
			C242.33,230.22,256.76,208.44,271.78,180.01z"/>
		<path class="st33" d="M245.29,264.97c17.78,0.74,40.51-0.7,44.88-4.63c3.76-3.38,7.14-54.99,3.05-72.06
			C278.29,217.18,265.11,239.48,245.29,264.97z"/>
	</g>
	<path class="st9" d="M192.6,269.85c-7.66,1.53-12.38,6.94-15.66,14.26c0.12,2.32,0.19,4.66,0.19,7.03
		c0,20.69-4.63,39.61-12.28,54.21c14.28-22.91,12.25-66.87,30.8-68.63C198,274.26,195.23,268.87,192.6,269.85z"/>
	<path class="st34" d="M348.87,394.98c0,0-26.69-48.81-21.25-54s85.01,40.28,85.01,40.28l-4.2,13.72H348.87z"/>
	<path class="st35" d="M355.55,374.86c0,0-33.37-28.69-27.93-33.88s85.01,40.28,85.01,40.28L355.55,374.86z"/>
	<polygon class="st36" points="350.6,393.37 406.21,393.37 410.41,382.99 355.79,378.79 	"/>
	<polygon class="st37" points="406.21,393.37 410.41,382.99 355.79,378.79 353.65,384.81 	"/>
	<polygon class="st25" points="390.2,375.95 394.86,376.88 402.43,375.99 399.35,380.86 400.56,384.62 394.66,387.09 388.34,385.56 
		391.39,380.99 	"/>
	<polygon class="st30" points="102.13,193.1 89.94,163.56 92.49,162.09 	"/>
	<polygon class="st30" points="84.83,199.65 67.62,181.71 69.56,179.5 	"/>
	<path class="st35" d="M327.26,346.81l-2.59-4.2c1.4-3.64,4.5-5.37,9.14-6.3l5.31,7.04C333.67,342.91,330.78,343.52,327.26,346.81z"
		/>
	<path class="st38" d="M352.47,363.43l40.78,9.08c0,0-55.97-30.95-61.35-30.03C326.52,343.41,352.47,363.43,352.47,363.43z"/>
	<rect x="231.81" y="209.04" class="st39" width="11.86" height="26.32"/>
	<rect x="234.22" y="212.01" class="st39" width="7.04" height="20.39"/>
	<rect x="271.84" y="209.04" class="st39" width="11.86" height="26.32"/>
	<rect x="274.25" y="212.01" class="st39" width="7.04" height="20.39"/>
	<polygon class="st32" points="130.8,269.09 136.85,264.27 135.12,259.95 128.45,266.37 	"/>
	<polygon class="st30" points="104.97,213.98 96.57,195.33 107.2,212.38 	"/>
	<path class="st40" d="M292.08,184.85c-3.04-6.22-69.55-9.29-78.93,1.22c-0.04,0.04-0.06,0.11-0.1,0.16
		c11.89-9.59,75.14-6.52,78.11-0.46c5.59,11.44,2.38,67.95-1.52,74.96c0.19-0.13,0.38-0.25,0.53-0.38
		C294.23,256.7,297.87,196.68,292.08,184.85z"/>
	<rect x="232.92" y="210.77" class="st39" width="9.63" height="22.86"/>
	<rect x="272.83" y="210.77" class="st39" width="9.63" height="22.86"/>
</g>
</svg>
